<svg width="60" height="61" viewBox="0 0 60 61" fill="none" xmlns="http://www.w3.org/2000/svg">
<circle cx="30" cy="30.6914" r="29.5" stroke="black"/>
<path d="M35.3062 20.5223L34.9009 23.0699C34.3523 22.987 33.7493 22.9314 33.3204 22.9314C32.5565 22.9314 31.9614 23.0937 31.6139 23.5751C31.4503 23.8018 31.3746 24.0576 31.3366 24.3007C31.2989 24.5411 31.2936 24.8009 31.2936 25.0521V26.8275V27.3275H31.7936H34.8331L34.6056 30.0051H31.7936H31.2936V30.5051V41.1914H27.8063V30.5051V30.0051H27.3063H25.5V27.3275H27.3063H27.8063V26.8275V24.5527C27.8063 23.0643 28.1565 22.0024 28.8517 21.3071C29.5473 20.6115 30.6795 20.1914 32.4477 20.1914C33.5072 20.1914 34.3179 20.3245 35.3062 20.5223Z" fill="black" stroke="black"/>
</svg>
