<svg width="60" height="61" viewBox="0 0 60 61" fill="none" xmlns="http://www.w3.org/2000/svg">
<circle cx="30" cy="30.6914" r="29.5" stroke="black"/>
<path d="M30 20.8536C33.2041 20.8536 33.5837 20.8658 34.849 20.9235C36.019 20.9769 36.6544 21.1724 37.0773 21.3367C37.6374 21.5544 38.0371 21.8144 38.457 22.2343C38.877 22.6543 39.137 23.054 39.3547 23.6141C39.519 24.037 39.7145 24.6724 39.7679 25.8424C39.8256 27.1077 39.8378 27.4872 39.8378 30.6913C39.8378 33.8955 39.8256 34.275 39.7679 35.5404C39.7145 36.7104 39.519 37.3458 39.3547 37.7686C39.137 38.3287 38.877 38.7285 38.4571 39.1484C38.0371 39.5683 37.6374 39.8283 37.0773 40.046C36.6544 40.2104 36.019 40.4058 34.849 40.4592C33.5839 40.5169 33.2044 40.5292 30 40.5292C26.7956 40.5292 26.4162 40.5169 25.151 40.4592C23.981 40.4058 23.3456 40.2104 22.9227 40.046C22.3626 39.8283 21.9629 39.5683 21.543 39.1484C21.1231 38.7285 20.863 38.3287 20.6453 37.7686C20.481 37.3458 20.2855 36.7104 20.2321 35.5404C20.1744 34.275 20.1622 33.8955 20.1622 30.6913C20.1622 27.4872 20.1744 27.1077 20.2321 25.8424C20.2855 24.6724 20.481 24.037 20.6453 23.6141C20.863 23.054 21.123 22.6543 21.543 22.2344C21.9629 21.8144 22.3626 21.5544 22.9227 21.3367C23.3456 21.1724 23.981 20.9769 25.151 20.9235C26.4163 20.8658 26.7959 20.8536 30 20.8536ZM30 18.6914C26.741 18.6914 26.3323 18.7052 25.0524 18.7636C23.7752 18.8219 22.9028 19.0247 22.1395 19.3214C21.3504 19.628 20.6812 20.0384 20.0141 20.7055C19.3469 21.3726 18.9366 22.0418 18.63 22.8309C18.3333 23.5942 18.1305 24.4665 18.0722 25.7438C18.0138 27.0237 18 27.4324 18 30.6913C18 33.9504 18.0138 34.359 18.0722 35.6389C18.1305 36.9162 18.3333 37.7885 18.63 38.5518C18.9366 39.3409 19.3469 40.0101 20.0141 40.6773C20.6812 41.3444 21.3504 41.7547 22.1395 42.0613C22.9028 42.358 23.7752 42.5609 25.0524 42.6191C26.3323 42.6775 26.741 42.6913 30 42.6913C33.259 42.6913 33.6677 42.6775 34.9476 42.6191C36.2248 42.5609 37.0972 42.358 37.8605 42.0613C38.6496 41.7547 39.3188 41.3444 39.9859 40.6773C40.653 40.0101 41.0634 39.3409 41.37 38.5518C41.6667 37.7885 41.8695 36.9162 41.9278 35.6389C41.9862 34.359 42 33.9504 42 30.6913C42 27.4324 41.9862 27.0237 41.9278 25.7438C41.8695 24.4665 41.6667 23.5942 41.37 22.8309C41.0634 22.0418 40.653 21.3726 39.9859 20.7055C39.3188 20.0384 38.6496 19.628 37.8605 19.3214C37.0972 19.0247 36.2248 18.8219 34.9476 18.7636C33.6677 18.7052 33.259 18.6914 30 18.6914Z" fill="black"/>
<path d="M30.0054 24.5349C26.6021 24.5349 23.8433 27.2938 23.8433 30.697C23.8433 34.1003 26.6021 36.8592 30.0054 36.8592C33.4087 36.8592 36.1676 34.1003 36.1676 30.697C36.1676 27.2938 33.4087 24.5349 30.0054 24.5349ZM30.0054 34.697C27.7963 34.697 26.0054 32.9062 26.0054 30.697C26.0054 28.4879 27.7963 26.6971 30.0054 26.6971C32.2146 26.6971 34.0054 28.4879 34.0054 30.697C34.0054 32.9062 32.2146 34.697 30.0054 34.697Z" fill="black"/>
<path d="M37.8507 24.2877C37.8507 25.0829 37.206 25.7277 36.4107 25.7277C35.6154 25.7277 34.9707 25.0829 34.9707 24.2877C34.9707 23.4924 35.6154 22.8477 36.4107 22.8477C37.206 22.8477 37.8507 23.4924 37.8507 24.2877Z" fill="black"/>
</svg>
